HIERARCHY
ROOT Hips
{
	OFFSET 0.000000 0.000000 0.000000
	CHANNELS 6 Xposition Yposition Zposition Zrotation Yrotation Xrotation 
	JOINT LHipJoint
	{
		OFFSET 0.000000 0.000000 0.000000
		CHANNELS 3 Zrotation Yrotation Xrotation
		JOINT LeftUpLeg
		{
			OFFSET 1.363060 -1.794630 0.839290
			CHANNELS 3 Zrotation Yrotation Xrotation
			JOINT LeftLeg
			{
				OFFSET 2.448110 -6.726130 0.000000
				CHANNELS 3 Zrotation Yrotation Xrotation
				JOINT LeftFoot
				{
					OFFSET 2.562200 -7.039590 0.000000
					CHANNELS 3 Zrotation Yrotation Xrotation
					JOINT LeftToeBase
					{
						OFFSET 0.157640 -0.433110 2.322550
						CHANNELS 3 Zrotation Yrotation Xrotation
						End Site
						{
							OFFSET 0.000000 0.000000 0.000000
						}
					}
				}
			}
		}
	}
	JOINT RHipJoint
	{
		OFFSET 0.000000 0.000000 0.000000
		CHANNELS 3 Zrotation Yrotation Xrotation
		JOINT RightUpLeg
		{
			OFFSET -1.305520 -1.794630 0.839290
			CHANNELS 3 Zrotation Yrotation Xrotation
			JOINT RightLeg
			{
				OFFSET -2.542530 -6.985550 0.000000
				CHANNELS 3 Zrotation Yrotation Xrotation
				JOINT RightFoot
				{
					OFFSET -2.568260 -7.056230 0.000000
					CHANNELS 3 Zrotation Yrotation Xrotation
					JOINT RightToeBase
					{
						OFFSET -0.164730 -0.452590 2.363150
						CHANNELS 3 Zrotation Yrotation Xrotation
						End Site
						{
							OFFSET 0.000000 0.000000 0.000000
						}
					}
				}
			}
		}
	}
	JOINT LowerBack
	{
		OFFSET 0.000000 0.000000 0.000000
		CHANNELS 3 Zrotation Yrotation Xrotation
		JOINT Spine
		{
			OFFSET 0.028270 2.035590 -0.193380
			CHANNELS 3 Zrotation Yrotation Xrotation
			JOINT Spine1
			{
				OFFSET 0.056720 2.048850 -0.042750
				CHANNELS 3 Zrotation Yrotation Xrotation
				JOINT Neck
				{
					OFFSET 0.000000 0.000000 0.000000
					CHANNELS 3 Zrotation Yrotation Xrotation
					JOINT Neck1
					{
						OFFSET -0.054170 1.746240 0.172020
						CHANNELS 3 Zrotation Yrotation Xrotation
						JOINT Head
						{
							OFFSET 0.104070 1.761360 -0.123970
							CHANNELS 3 Zrotation Yrotation Xrotation
							End Site
							{
								OFFSET 0.000000 0.000000 0.000000
							}
						}
					}
				}
				JOINT LeftShoulder
				{
					OFFSET 0.000000 0.000000 0.000000
					CHANNELS 3 Zrotation Yrotation Xrotation
					JOINT LeftArm
					{
						OFFSET 3.362410 1.200890 -0.311210
						CHANNELS 3 Zrotation Yrotation Xrotation
						JOINT LeftForeArm
						{
							OFFSET 4.983000 -0.000000 -0.000000
							CHANNELS 3 Zrotation Yrotation Xrotation
							JOINT LeftHand
							{
								OFFSET 3.483560 -0.000000 -0.000000
								CHANNELS 3 Zrotation Yrotation Xrotation
								JOINT LeftFingerBase
								{
									OFFSET 0.000000 0.000000 0.000000
									CHANNELS 3 Zrotation Yrotation Xrotation
									JOINT LeftHandIndex1
									{
										OFFSET 0.715260 -0.000000 -0.000000
										CHANNELS 3 Zrotation Yrotation Xrotation
										End Site
										{
											OFFSET 0.000000 0.000000 0.000000
										}
									}
								}
								JOINT LThumb
								{
									OFFSET 0.000000 0.000000 0.000000
									CHANNELS 3 Zrotation Yrotation Xrotation
									End Site
									{
										OFFSET 0.000000 0.000000 0.000000
									}
								}
							}
						}
					}
				}
				JOINT RightShoulder
				{
					OFFSET 0.000000 0.000000 0.000000
					CHANNELS 3 Zrotation Yrotation Xrotation
					JOINT RightArm
					{
						OFFSET -3.136600 1.374050 -0.404650
						CHANNELS 3 Zrotation Yrotation Xrotation
						JOINT RightForeArm
						{
							OFFSET -5.241900 -0.000000 -0.000000
							CHANNELS 3 Zrotation Yrotation Xrotation
							JOINT RightHand
							{
								OFFSET -3.444170 -0.000000 -0.000000
								CHANNELS 3 Zrotation Yrotation Xrotation
								JOINT RightFingerBase
								{
									OFFSET 0.000000 0.000000 0.000000
									CHANNELS 3 Zrotation Yrotation Xrotation
									JOINT RightHandIndex1
									{
										OFFSET -0.622530 -0.000000 -0.000000
										CHANNELS 3 Zrotation Yrotation Xrotation
										End Site
										{
											OFFSET 0.000000 0.000000 0.000000
										}
									}
								}
								JOINT RThumb
								{
									OFFSET 0.000000 0.000000 0.000000
									CHANNELS 3 Zrotation Yrotation Xrotation
									End Site
									{
										OFFSET 0.000000 0.000000 0.000000
									}
								}
							}
						}
					}
				}
			}
		}
	}
}
MOTION
Frames: 6
Frame Time: 0.008333
0.718363 18.434784 9.641941 -11.272202 -3.424890 12.307751 6.255912 5.885295 1.287433 -23.561664 -52.670479 27.580828 -4.179998 -2.912112 -3.517684 -11.696523 46.865218 -46.973918 1.433300 7.569600 21.414200 0.219006 -4.657048 2.121363 23.855234 27.798077 -0.738643 3.506181 -0.321769 2.351547 7.116637 -23.019517 0.043282 -0.001100 -0.210400 0.578000 -2.708680 3.103167 -1.882184 21.719313 4.568522 4.104163 -9.017793 0.098607 -17.002973 -9.317232 -7.122130 -31.836870 11.952000 -9.790645 40.253722 1.829500 -2.437900 12.658600 -7.801894 -8.352339 1.081195 -38.457279 -36.669470 60.803921 45.663946 -44.200781 -25.016804 -0.421966 -3.652539 -59.669034 42.297935 11.451236 12.761800 -7.125000 0.000000 0.000000 17.752600 47.154400 0.973300 8.635939 10.767442 2.650970 46.667157 42.888432 81.749150 -59.282397 48.631278 -34.069715 0.115505 1.424224 8.147590 -15.251996 -45.285882 11.178700 7.125000 0.000000 0.000000 43.764300 -73.966800 -31.407200 
0.720361 18.432680 9.641520 -11.187135 -3.204617 12.216672 6.283336 5.867766 1.235794 -23.329293 -52.261605 27.132816 -4.151973 -2.915251 -3.541179 -12.103563 46.884122 -45.945171 1.354100 7.366100 20.804700 0.201909 -4.656480 2.096958 23.837282 27.747564 -0.616813 3.511569 -0.322392 2.361822 7.195384 -23.217259 -0.120456 -0.000300 -0.105600 0.290100 -2.813744 3.015989 -1.844068 21.682944 4.519191 3.767614 -8.981294 0.058989 -16.956230 -9.238212 -7.141113 -31.847696 11.810029 -9.857736 40.921854 1.778700 -2.455900 12.853100 -7.869287 -8.373209 1.115875 -40.140325 -36.813887 60.971553 44.766273 -43.643293 -24.210280 -0.301137 -3.675502 -61.477916 40.974873 11.771316 12.486700 -7.125000 0.000000 0.000000 16.471300 47.297600 0.958800 8.684711 10.819025 2.627119 45.942807 42.376886 80.831911 -60.535007 49.055539 -35.171964 0.102275 1.237870 12.725689 -18.213750 -44.864075 13.239000 7.125000 0.000000 0.000000 39.270200 -74.667000 -28.481900 
0.724253 18.431418 9.640679 -11.162267 -2.931383 12.153643 6.315300 5.850248 1.173361 -23.156379 -52.002549 26.828172 -4.127254 -2.908113 -3.547077 -12.418420 46.889359 -45.095083 1.288800 7.193600 20.290100 0.194679 -4.652110 2.063970 23.877184 27.664729 -0.524040 3.515774 -0.329710 2.377832 7.275013 -23.434677 -0.249935 -0.000100 0.049800 -0.136800 -2.857246 2.943398 -1.745290 21.746196 4.504857 3.310848 -9.032435 0.003645 -16.866328 -9.295916 -7.185892 -31.836799 11.864225 -9.973676 41.487667 1.784200 -2.476000 13.034800 -7.938351 -8.393360 1.171999 -41.842064 -36.934134 61.432713 43.817001 -43.030045 -23.338816 -0.320951 -3.626040 -60.657302 39.448466 11.923772 11.968300 -7.125000 0.000000 0.000000 14.891000 47.194300 0.823800 8.733499 10.860342 2.622484 45.309379 41.805499 79.850008 -61.672934 49.448508 -36.203108 0.060997 1.067736 17.021020 -21.101032 -44.679387 15.299400 7.125000 0.000000 0.000000 35.289400 -75.511000 -26.021600 
0.729511 18.429419 9.637839 -11.219602 -2.593148 12.024621 6.388771 5.847911 1.145659 -22.997583 -51.798680 26.614038 -4.101436 -2.912558 -3.557059 -12.801502 46.973759 -44.192649 1.204800 6.963800 19.608100 0.229446 -4.656198 2.083289 23.959044 27.555451 -0.436283 3.519675 -0.341638 2.412302 7.353583 -23.641698 -0.430992 -0.000300 0.119300 -0.327900 -3.001014 2.839826 -1.793015 22.258252 4.369750 3.286195 -9.153098 -0.096488 -16.841274 -9.277331 -7.211703 -31.906382 11.639373 -9.935651 41.862286 1.733600 -2.472200 13.178700 -8.015449 -8.397631 1.199523 -43.430029 -37.073667 62.195723 43.087175 -42.498061 -22.632713 -0.455981 -3.524415 -58.385147 38.365470 11.524141 11.153500 -7.125000 0.000000 0.000000 13.667200 46.448300 0.497600 8.647857 10.922813 2.587885 44.745171 41.399521 78.921573 -62.572567 49.737102 -37.023889 0.013533 0.947489 20.060721 -23.404077 -44.642421 16.991100 7.125000 0.000000 0.000000 32.246800 -76.282300 -24.175000 
0.735612 18.425949 9.634473 -11.294737 -2.270360 11.847217 6.482313 5.854702 1.148461 -22.809402 -51.543479 26.347212 -4.074100 -2.918839 -3.551151 -13.260331 47.127575 -43.185514 1.091100 6.638400 18.648300 0.287006 -4.664403 2.143487 24.007219 27.402870 -0.384245 3.522176 -0.354902 2.458295 7.407966 -23.773755 -0.587726 -0.000500 0.144000 -0.395500 -3.230438 2.694251 -1.995853 23.008148 4.112294 3.643236 -9.290389 -0.224068 -16.864025 -9.283262 -7.211511 -31.931457 11.419265 -9.824639 41.980714 1.698800 -2.445800 13.244400 -8.072054 -8.385941 1.200614 -44.806126 -37.104188 62.996556 42.802946 -42.213302 -22.313238 -0.585454 -3.409676 -56.408755 37.702868 10.809736 10.261900 -7.125000 0.000000 0.000000 12.848300 45.377200 0.121600 8.483354 10.984790 2.518825 44.290853 41.206414 78.142793 -63.184220 49.905392 -37.578246 -0.019330 0.877452 21.902875 -24.803144 -44.794781 18.080000 7.125000 0.000000 0.000000 30.820400 -76.891300 -23.440400 
0.740976 18.423635 9.630897 -11.338878 -2.070145 11.711609 6.541258 5.856315 1.150971 -22.735392 -51.389175 26.213916 -4.063183 -2.917184 -3.518339 -13.379660 47.070956 -42.702777 1.048500 6.511500 18.276000 0.330100 -4.667753 2.183549 24.006088 27.234248 -0.391157 3.521165 -0.372482 2.508298 7.416223 -23.788422 -0.620609 -0.000300 0.106200 -0.291700 -3.411899 2.584769 -2.127002 23.554476 3.924095 3.860626 -9.406779 -0.317455 -16.860049 -9.472211 -7.238044 -31.882947 11.515832 -9.814717 42.015143 1.750500 -2.429800 13.281500 -8.096771 -8.357760 1.223657 -45.968340 -36.908337 63.746588 43.033114 -42.259823 -22.464625 -0.619245 -3.294664 -55.646442 36.772305 9.934202 9.193100 -7.125000 0.000000 0.000000 11.766900 44.096000 -0.266400 8.378625 11.005071 2.465992 44.020770 41.056611 77.483378 -63.437626 49.977220 -37.814712 -0.029895 0.830615 23.255386 -25.641378 -45.262794 18.854900 7.125000 0.000000 0.000000 31.094100 -77.545100 -24.058800 
